<?xml version="1.0" encoding="UTF-8"?>
<svg width="32px" height="32px" viewBox="0 0 32 32" version="1.1" xmlns="http://www.w3.org/2000/svg">
    <title>Automotive Admin</title>
    <g stroke="none" stroke-width="1" fill="none" fill-rule="evenodd">
        <circle fill="#4e73df" cx="16" cy="16" r="16"/>
        <path d="M24,16 L22,12 L10,12 L8,16 L6,16 L6,20 L8,20 C8,21.1045695 8.8954305,22 10,22 C11.1045695,22 12,21.1045695 12,20 L20,20 C20,21.1045695 20.8954305,22 22,22 C23.1045695,22 24,21.1045695 24,20 L26,20 L26,16 L24,16 Z M10,20.5 C9.17157288,20.5 8.5,19.8284271 8.5,19 C8.5,18.1715729 9.17157288,17.5 10,17.5 C10.8284271,17.5 11.5,18.1715729 11.5,19 C11.5,19.8284271 10.8284271,20.5 10,20.5 Z M22,20.5 C21.1715729,20.5 20.5,19.8284271 20.5,19 C20.5,18.1715729 21.1715729,17.5 22,17.5 C22.8284271,17.5 23.5,18.1715729 23.5,19 C23.5,19.8284271 22.8284271,20.5 22,20.5 Z M10.5,16 L21.5,16 L23,13 L9,13 L10.5,16 Z" fill="#FFFFFF"/>
    </g>
</svg> 