<?xml version="1.0" encoding="UTF-8"?>
<svg width="36px" height="36px" viewBox="0 0 36 36" version="1.1" xmlns="http://www.w3.org/2000/svg">
    <title>Default Profile</title>
    <g stroke="none" stroke-width="1" fill="none" fill-rule="evenodd">
        <circle fill="#E3E6F0" cx="18" cy="18" r="18"/>
        <path d="M18,7 C20.7614237,7 23,9.23857625 23,12 C23,14.7614237 20.7614237,17 18,17 C15.2385763,17 13,14.7614237 13,12 C13,9.23857625 15.2385763,7 18,7 Z M18,20 C23.9705627,20 29,22.6862915 29,26 L29,27 C29,28.1045695 28.1045695,29 27,29 L9,29 C7.8954305,29 7,28.1045695 7,27 L7,26 C7,22.6862915 12.0294373,20 18,20 Z" fill="#858796"/>
    </g>
</svg> 