<?xml version="1.0" encoding="UTF-8"?>
<svg id="Layer_2" data-name="Layer 2" xmlns="http://www.w3.org/2000/svg" viewBox="0 0 40.01 40.01">
  <defs>
    <style>
      .yellow-elements {
        fill: #ffbe00;
      }

      /* Background hexagon reveal */
      .background {
        fill: #000000;
        animation: revealBg 1s ease-out forwards;
        opacity: 0;
      }

      @keyframes revealBg {
        0% {
          opacity: 0;
          transform: scale(1.1);
        }
        100% {
          opacity: 1;
          transform: scale(1);
        }
      }

      /* Elements reveal */
      .reveal-element {
        animation: revealElement 1.5s ease-out forwards;
        opacity: 0;
      }

      @keyframes revealElement {
        0% {
          transform: translateY(-5px);
          opacity: 0;
        }
        100% {
          transform: translateY(0);
          opacity: 1;
        }
      }

      /* Wrench subtle movement */
      .wrench-left {
        animation: wrenchLeft 2s ease-in-out 2;
        transform-origin: center;
      }

      .wrench-right {
        animation: wrenchRight 2s ease-in-out 2;
        transform-origin: center;
      }

      @keyframes wrenchLeft {
        0% { transform: rotate(0deg); }
        50% { transform: rotate(-5deg); }
        100% { transform: rotate(0deg); }
      }

      @keyframes wrenchRight {
        0% { transform: rotate(0deg); }
        50% { transform: rotate(5deg); }
        100% { transform: rotate(0deg); }
      }

      /* Gear subtle movement */
      .gear {
        animation: gearMove 2s ease-in-out 2;
        transform-origin: center;
      }

      @keyframes gearMove {
        0% { transform: rotate(0deg); }
        50% { transform: rotate(10deg); }
        100% { transform: rotate(0deg); }
      }
    </style>
  </defs>

  <g id="Layer_1-2" data-name="Layer 1">
    <!-- Black Background Hexagon -->
    <path class="background" d="M20,2 L36,11 L36,29 L20,38 L4,29 L4,11 Z"/>
    
    <!-- Car Front -->
    <g class="reveal-element" style="animation-delay: 0.2s;">
      <path class="yellow-elements" d="M12,12 C16,10 24,10 28,12 L30,14 C30,16 28,17 28,17 L12,17 C12,17 10,16 10,14 L12,12 Z"/>
      <path class="yellow-elements" d="M14,13 L26,13 C26,13 25,14 25,14 L15,14 C15,14 14,14 14,13 Z"/>
      <path class="yellow-elements" d="M16,11.5 C19,10.5 21,10.5 24,11.5"/>
    </g>

    <!-- Crossed Wrenches -->
    <g class="wrench-left reveal-element" style="animation-delay: 0.4s;">
      <path class="yellow-elements" d="M10,20 L15,18 C16,17.5 17,18 17,19 L17,21 C17,22 16,22.5 15,22 L10,20 Z"/>
    </g>
    <g class="wrench-right reveal-element" style="animation-delay: 0.4s;">
      <path class="yellow-elements" d="M30,20 L25,18 C24,17.5 23,18 23,19 L23,21 C23,22 24,22.5 25,22 L30,20 Z"/>
    </g>

    <!-- NATI Text -->
    <g class="reveal-element" style="animation-delay: 0.6s;">
      <text class="yellow-elements" x="20" y="20" text-anchor="middle" style="font-size: 4px; font-weight: bold;">NATI</text>
    </g>

    <!-- Bottom Gear with AUTOMOTIVE text -->
    <g class="gear reveal-element" style="animation-delay: 0.8s;">
      <path class="yellow-elements" d="M10,24 C10,24 15,22 20,22 C25,22 30,24 30,24 C30,26 25,28 20,28 C15,28 10,26 10,24 Z"/>
      <path class="yellow-elements" d="M12,24 L28,24 C28,25 25,26 20,26 C15,26 12,25 12,24 Z"/>
      <text class="yellow-elements" x="20" y="25" text-anchor="middle" style="font-size: 2.5px; font-weight: bold;">AUTOMOTIVE</text>
    </g>
  </g>
</svg> 