<?xml version="1.0" encoding="UTF-8"?>
<svg id="Layer_2" data-name="Layer 2" xmlns="http://www.w3.org/2000/svg" viewBox="0 0 40.01 40.01">
  <defs>
    <style>
      .cls-1 {
        fill: none;
        stroke: #231f20;
        stroke-miterlimit: 10;
        stroke-width: 0px;
      }

      .cls-2 {
        fill: #ffbe00;
      }

      .cls-3 {
        fill: #febd00;
      }

      .cls-4 {
        fill: #febe05;
      }
    </style>
  </defs>
  <g id="Layer_1-2" data-name="Layer 1">
    <rect class="cls-1" x="0" y="0" width="40" height="40"/>
    <g>
      <path d="m12.04,14.75c.25-.58.51-1.15.77-1.72.51-1.14,1.4-1.76,2.57-1.95.99-.16,2-.3,3-.35,2.17-.11,4.34-.11,6.49.26.3.05.6.14.89.22.91.24,1.57.79,1.98,1.66.29.6.56,1.21.83,1.82.25.58.17.81-.43,1.19-.11-.39-.19-.74-.3-1.09-.14-.44-.3-.87-.44-1.3-.35-1.13-1.16-1.71-2.22-2.01-1.64-.46-3.32-.58-5.01-.57-1.5,0-2.98.15-4.44.49-1.3.3-2.22,1.01-2.6,2.37-.15.53-.32,1.05-.47,1.58-.05.17-.1.34-.16.52-.56-.31-.68-.6-.46-1.12Zm21.37.79c-2.15-1.94-4.29-3.89-6.45-5.82-.17-.15-.45-.25-.68-.25-3.91-.02-7.82,0-11.73-.02-.36,0-.63.11-.9.34-2.09,1.82-4.19,3.62-6.28,5.43-.65.56-.65.56-.2,1.32.32.55.64,1.1.97,1.68-.33.21-.61.41-.92.56-.27.13-.24.26-.12.49,1.6,2.83,3.19,5.67,4.77,8.51.14.25.27.26.49.12.33-.21.68-.41,1.04-.62.43.73.86,1.43,1.25,2.15.15.27.33.35.61.35,3.37,0,6.75,0,10.12,0,.33,0,.53-.1.7-.41.34-.67.73-1.31,1.12-2,.32.18.61.32.86.51.33.25.48.15.67-.18.62-1.14,1.26-2.26,1.89-3.38.93-1.65,1.85-3.3,2.79-4.95.16-.29.13-.43-.16-.58-.3-.15-.57-.34-.91-.55.41-.72.77-1.41,1.18-2.08.17-.28.12-.42-.1-.62Zm-24.56-.92c.5-.69,1.52-.87,2.19-.34.15.12.25.37.26.57.04.89.29,1.23,1.16,1.36.69.1,1.4.16,2.1.21,4.42.29,8.83.27,13.24-.15.22-.02.43-.06.64-.12.67-.19.88-.46.87-1.19,0-.44.18-.68.56-.83.8-.32,1.47-.14,1.94.53.29.41.26.65-.22.79-.55.16-1.14.2-1.72.29-.08.01-.17-.01-.27-.02-.13.29-.1.52.08.78.45.62.85,1.27.64,2.1-.04.18-.1.35-.18.52-.2.41-.42.46-.79.19-1.21-.89-2.69-.69-3.62.51-.17.22-.34.36-.63.37-2.3.04-4.6.12-6.89.13-.96,0-1.91-.1-2.87-.19-.19-.02-.42-.14-.54-.29-.9-1.16-2.48-1.43-3.66-.52-.32.25-.52.18-.7-.19-.3-.65-.29-1.3.05-1.93.13-.24.28-.48.45-.68.21-.25.18-.49.1-.78-.69.11-1.35.04-1.97-.24-.5-.22-.55-.41-.23-.86Zm16.94,11.24c-.04.08-.21.14-.3.12-.18-.04-.36-.1-.55-.16-.09-.03-.17-.06-.26-.08-.31-.09-.52.12-.44.44,0,.01,0,.03,0,.04.01.05.02.1.04.14.1.33.26.69.16.94-.12.29-.58.43-.89.63q-.7.45-1.23-.18c-.06-.07-.11-.16-.18-.2-.05-.03-.11-.07-.17-.1h0c-.07-.03-.13-.05-.18-.03-.05.01-.1.05-.14.11-.05.06-.08.13-.1.19-.09.27-.12.57-.21.84-.04.11-.19.25-.29.25-.48.03-.97.03-1.46,0-.11,0-.26-.14-.3-.24-.1-.28-.13-.59-.21-.88-.03-.1-.07-.17-.12-.22t0,0c-.07-.06-.15-.08-.24-.06h0c-.07.02-.14.06-.21.13-.21.22-.38.46-.6.66-.07.07-.26.1-.35.05-.43-.24-.83-.52-1.25-.77-.2-.12-.22-.25-.16-.45.09-.26.16-.53.22-.8,0,0,0,0,0-.01.08-.37-.12-.57-.48-.46-.01,0-.02,0-.03.01h0c-.31.1-.67.31-.9.21-.24-.1-.36-.54-.52-.83-.15-.26-.28-.53-.41-.77.15-.17.29-.33.43-.49.09-.1.18-.2.28-.3.07-.07.14-.13.21-.2.18-.16.47-.24.72-.25.6-.03,1.2-.03,1.8,0,.15,0,.34.11.43.23,1.32,1.8,3.53,1.8,4.84,0,.08-.1.21-.23.32-.24.74,0,1.47.02,2.21.05.08,0,.17.05.23.11.19.19.38.38.58.57h0c.09.09.19.19.29.29.08.08.16.16.24.24-.25.47-.51.98-.79,1.48Zm.11-2.46c-.29-.39-.65-.55-1.08-.58-.05,0-.09,0-.14,0-2.95,0-5.9,0-8.85,0-.12,0-.24,0-.35.03-.34.06-.63.23-.87.56-.52.69-1.23,1-2.08.96-.12,0-.28-.04-.34-.12-.29-.39-.56-.8-.84-1.2.02-.04.04-.07.07-.11.36,0,.71-.02,1.07,0,.33.02.57-.08.7-.42,0-.01.01-.02.02-.03.46-.83.45-1.08-.14-1.82-.1-.13-.33-.21-.5-.22-.52-.03-1.05,0-1.57-.02-.14,0-.27-.08-.41-.13.06-.14.1-.3.19-.41.99-1.17,2.75-1.2,3.75-.02.29.35.6.54.97.63.17.04.36.06.56.05,2.86-.02,5.72-.02,8.59,0,.07,0,.13,0,.19,0,.46-.04.81-.23,1.13-.61,1.03-1.24,2.81-1.24,3.82-.01.09.11.11.27.17.41-.13.03-.26.1-.39.1-.52.01-1.05.01-1.57,0-.29,0-.5.09-.61.37,0,.01-.01.02-.02.03-.51.89-.5,1.08.12,1.88.09.11.28.19.42.2.38.03.76,0,1.27,0-.36.52-.66.95-.97,1.37-.05.06-.19.07-.28.07-.82,0-1.5-.31-2-.97Z"/>
      <path class="cls-2" d="m26.06,23.85h0c-.13.22-1.98,3.26-5.49,3.31-2.42.04-4.68-1.36-5.84-3.6.07-.07.14-.13.21-.2.18-.16.47-.24.72-.25.6-.03,1.2-.03,1.8,0,.15,0,.34.11.43.23,1.32,1.8,3.53,1.8,4.84,0,.08-.1.21-.23.32-.24.74,0,1.47.02,2.21.05.08,0,.17.05.23.11.19.19.38.38.58.57Z"/>
      <path class="cls-2" d="m12.65,27.1c-.56.29-.55.32-.87-.24-1.39-2.48-2.77-4.95-4.16-7.43-.12-.21-.11-.33.11-.43.14-.07.28-.15.43-.24.11-.06.25-.03.31.09.41.72.81,1.42,1.2,2.13,1.04,1.85,2.07,3.71,3.12,5.55.16.28.16.41-.14.57Z"/>
      <path class="cls-2" d="m33.01,18.98c.11.07.15.22.09.34-.26.48-.51.93-.76,1.38-1.23,2.18-2.46,4.36-3.68,6.55-.15.26-.26.35-.54.17-.57-.36-.58-.35-.24-.94,1.4-2.49,2.8-4.98,4.2-7.48.04-.07.08-.13.12-.21.07-.11.21-.15.32-.08.16.1.32.19.48.28Z"/>
      <path class="cls-3" d="m26.59,24.38c-.25.47-.51.98-.79,1.48-.04.08-.21.14-.3.12-.18-.04-.36-.1-.55-.16.82-.75,1.28-1.48,1.4-1.68.08.08.16.16.24.24Z"/>
      <path class="cls-2" d="m15.87,25.75c-.31.1-.67.31-.9.21-.24-.1-.36-.54-.52-.83-.15-.26-.28-.53-.41-.77.15-.17.29-.33.43-.49.37.72.85,1.35,1.41,1.89Z"/>
      <path class="cls-2" d="m18.73,27.39c-.07.02-.14.06-.21.13-.21.22-.38.46-.6.66-.07.07-.26.1-.35.05-.43-.24-.83-.52-1.25-.77-.2-.12-.22-.25-.16-.45.09-.26.16-.53.22-.8,0,0,0,0,0-.01.7.55,1.49.95,2.34,1.19Z"/>
      <path class="cls-3" d="m21.66,27.52c-.05.06-.08.13-.1.19-.09.27-.12.57-.21.84-.04.11-.19.25-.29.25-.48.03-.97.03-1.46,0-.11,0-.26-.14-.3-.24-.1-.28-.13-.59-.21-.88-.03-.1-.07-.17-.12-.22.51.12,1.04.18,1.57.18.39,0,.77-.04,1.12-.11Z"/>
      <path class="cls-3" d="m24.45,27.29c-.12.29-.58.43-.89.63q-.7.45-1.23-.18c-.06-.07-.11-.16-.18-.2-.05-.03-.11-.07-.17-.1.91-.22,1.68-.64,2.31-1.1.1.33.26.69.16.94Z"/>
      <path class="cls-2" d="m27.37,20.81c.11-.28.33-.38.61-.37.52,0,1.05,0,1.57,0,.13,0,.26-.06.39-.1-.05-.14-.08-.3-.17-.41-1.02-1.23-2.8-1.23-3.82.01-.32.39-.67.58-1.13.61,0,.15,0,.3-.01.45-.3.07-.52.35-.51.67,0,.32.23.59.54.65,0,.16,0,.32-.01.49.44.03.79.19,1.08.58.5.66,1.19.98,2,.97.1,0,.24,0,.28-.07.31-.42.61-.85.97-1.37-.52,0-.9.02-1.27,0-.15-.01-.34-.08-.42-.2-.62-.8-.63-.98-.12-1.88,0-.01.01-.02.02-.03Zm-2.43,1.4c-.25-.03-.44-.17-.46-.49-.02-.3.18-.54.46-.56.28-.02.51.21.53.5.01.29-.21.54-.52.55Z"/>
      <path class="cls-2" d="m15.48,20.96v-.45c-.37-.09-.68-.28-.97-.63-.99-1.19-2.76-1.16-3.75.02-.09.11-.13.27-.19.41.14.04.27.12.41.13.52.02,1.05-.01,1.57.02.17,0,.39.09.5.22.59.74.6.98.14,1.82,0,.01-.02.02-.02.03-.12.34-.36.44-.7.42-.35-.02-.71,0-1.07,0-.02.04-.04.07-.07.11.28.4.54.81.84,1.2.06.08.22.12.34.12.85.03,1.56-.28,2.08-.96.25-.33.53-.49.87-.56v-.47c.35-.04.62-.34.63-.69,0-.37-.27-.69-.63-.72Zm-.14,1.26c-.25-.03-.44-.17-.46-.49-.02-.3.18-.54.46-.56.28-.02.51.21.53.5.01.29-.21.54-.52.55Z"/>
      <path d="m35.22,14.74c-2.44-2.1-4.89-4.21-7.33-6.31-.11.14-.21.27-.32.41,2.45,2.08,4.89,4.16,7.34,6.24.1-.11.21-.23.31-.34Z"/>
      <path d="m5.86,15.22c2.42-2.13,4.84-4.27,7.26-6.4-.11-.13-.23-.26-.34-.39-2.4,2.14-4.8,4.28-7.19,6.42.09.13.18.25.27.38Z"/>
      <path class="cls-4" d="m31.81,14.66c-.47-.67-1.14-.85-1.94-.53-.38.15-.57.4-.56.83.01.72-.19.99-.87,1.19-.21.06-.42.1-.64.12-4.41.42-8.82.44-13.24.15-.7-.05-1.4-.11-2.1-.21-.87-.13-1.12-.47-1.16-1.36,0-.2-.12-.45-.26-.57-.67-.53-1.69-.36-2.19.34-.32.45-.27.64.23.86.62.27,1.28.34,1.97.24.09.29.11.53-.1.78-.17.21-.32.44-.45.68-.35.63-.35,1.28-.05,1.93.17.38.37.44.7.19,1.18-.9,2.76-.64,3.66.52.12.15.35.28.54.29.95.09,1.91.2,2.87.19,2.3-.01,4.6-.09,6.89-.13.29,0,.46-.15.63-.37.93-1.19,2.41-1.39,3.62-.51.37.27.59.23.79-.19.08-.16.14-.34.18-.52.2-.83-.19-1.48-.64-2.1-.19-.25-.21-.49-.08-.78.09,0,.18.03.27.02.57-.09,1.16-.13,1.72-.29.48-.14.51-.38.22-.79Zm-16.06,4.61h9.02c-3.01.27-6.01.26-9.02,0Z"/>
      <path class="cls-2" d="m28.14,15.89c-.11-.39-.19-.74-.3-1.09-.14-.44-.3-.87-.44-1.3-.35-1.13-1.16-1.71-2.22-2.01-1.64-.46-3.32-.58-5.01-.57-1.5,0-2.98.15-4.44.49-1.3.3-2.22,1.01-2.6,2.37-.15.53-.32,1.05-.47,1.58-.05.17-.1.34-.16.52-.56-.31-.68-.6-.46-1.12.25-.58.51-1.15.77-1.72.51-1.14,1.4-1.76,2.57-1.95.99-.16,2-.3,3-.35,2.17-.11,4.34-.11,6.49.26.3.05.6.14.89.22.91.24,1.57.79,1.98,1.66.29.6.56,1.21.83,1.82.25.58.17.81-.43,1.19Z"/>
      <path d="m24.76,19.26c-3.01.27-6.01.26-9.02,0h9.02Z"/>
      <path d="m23.93,19.7c-2.27.25-4.66.2-7.06,0h7.06Z"/>
      <path d="m15.86,21.67c.01.29-.21.54-.52.55-.25-.03-.44-.17-.46-.49-.02-.3.18-.54.46-.56.28-.02.51.21.53.5Z"/>
      <path d="m25.47,21.67c.01.29-.21.54-.52.55-.25-.03-.44-.17-.46-.49-.02-.3.18-.54.46-.56.28-.02.51.21.53.5Z"/>
      <path d="m19.89,21.33l-.15.52h.3l-.15-.52Zm0,0l-.15.52h.3l-.15-.52Zm4.41.35c0-.32.21-.6.51-.67,0-.15,0-.3.01-.45,0-.02,0-.04,0-.06h-9.34v.46c.36.04.63.36.63.72,0,.36-.28.66-.63.69v.51h9.34s0-.04,0-.06c0-.16,0-.32.01-.49-.3-.06-.53-.33-.54-.65Zm-4.56.16h.3l-.15-.52-.15.52Zm.15-.52l-.15.52h.3l-.15-.52Zm0,0l-.15.52h.3l-.15-.52Z"/>
      <g>
        <path class="cls-2" d="m18.5,20.7v1.93s-.04.09-.08.09h-.49s-.06-.02-.07-.04l-.22-.36c-.04-.07-.15-.04-.15.05v.25s-.04.09-.08.09h-.65s-.08-.04-.08-.09v-1.91s.04-.09.08-.09h.46s.06.02.07.04l.25.41c.04.07.15.04.15-.05v-.32s.04-.09.08-.09h.65s.08.04.08.09Z"/>
        <path class="cls-2" d="m20.42,20.61h-1.06s-.06.02-.07.06l-.6,1.92c-.02.05.02.1.07.1h.66s.06-.02.07-.06l.07-.24s.04-.06.07-.06h.49s.06.02.07.06l.07.24s.04.06.07.06h.66c.05,0,.09-.05.07-.1l-.59-1.92s-.04-.06-.07-.06Zm-.65,1.14l.05-.16c.02-.07.12-.07.15,0l.05.16c.01.05-.02.1-.07.1h-.1c-.05,0-.09-.05-.07-.1Z"/>
        <path class="cls-2" d="m22.61,20.74v.67c0,.07-.06.13-.12.13h-.17c-.07,0-.12.06-.12.13v.9c0,.07-.06.13-.12.13h-.57c-.07,0-.12-.06-.12-.13v-.9c0-.07-.06-.13-.12-.13h-.17c-.07,0-.12-.06-.12-.13v-.67c0-.07.06-.13.12-.13h1.4c.07,0,.12.06.12.13Z"/>
        <path class="cls-2" d="m22.96,20.61h.59c.06,0,.12.05.12.12v1.85c0,.06-.05.11-.11.11h-.6c-.06,0-.11-.05-.11-.11v-1.86c0-.06.05-.11.11-.11Z"/>
      </g>
      <path d="m26.38,24.09s-.01.02-.03.04c-.12.19-.58.93-1.4,1.68-.2.18-.42.37-.66.54-.63.46-1.4.87-2.31,1.1h0c-.11.03-.21.05-.32.07-.35.07-.73.11-1.12.11-.53,0-1.06-.06-1.57-.18t0,0c-.08-.02-.16-.04-.24-.06h0c-.85-.24-1.64-.64-2.34-1.19-.18-.14-.35-.29-.52-.45h0c-.56-.53-1.04-1.17-1.41-1.89-.03-.06-.06-.12-.09-.19.1-.09.2-.17.29-.26.02.05.05.1.08.15,1.16,2.24,3.42,3.63,5.84,3.6,3.51-.05,5.36-3.09,5.49-3.31h0s0,0,0,0c.1.08.21.17.31.25Z"/>
    </g>
    <g>
      <path d="m16.47,24.35c-.09-.14-.13-.21-.21-.35-.07,0-.1,0-.16,0-.06-.12-.09-.18-.15-.3.38.03.56.03.92-.01.06.1.08.15.15.24-.19.31-.28.48-.43.83-.08-.1-.12-.15-.19-.26.03-.06.04-.09.08-.15Zm.09-.16c.06-.1.09-.15.16-.25-.11.02-.17.03-.28.04.05.08.07.13.12.21Z"/>
      <path d="m17.49,24.53c-.13.13-.19.19-.32.32-.03.03-.05.06-.06.07,0,.01-.02.03-.02.06,0,.05.01.11.07.16.03.02.05.04.08.05.03.01.06.01.08,0,.02,0,.04-.01.05-.03.01-.01.04-.03.06-.07.12-.14.17-.21.29-.35.07.06.11.09.18.15-.12.16-.17.23-.29.39-.05.06-.09.11-.14.12-.07.03-.15.03-.23,0-.07-.02-.15-.07-.22-.14-.08-.08-.14-.16-.17-.25-.02-.07-.03-.14-.01-.19.02-.05.06-.11.12-.17.14-.13.21-.19.36-.32.06.07.1.11.16.18Z"/>
      <path d="m18.32,25.41c-.12.23-.19.35-.31.58-.1-.05-.14-.08-.24-.14.14-.22.21-.34.34-.56-.07-.04-.1-.07-.16-.11.04-.06.06-.09.1-.15.2.14.31.21.52.32-.03.07-.05.1-.08.17-.07-.04-.11-.05-.18-.09Z"/>
      <path d="m19.16,25.55c.14.04.24.12.31.23.07.1.09.21.07.33-.02.08-.05.15-.11.21-.07.06-.15.1-.25.12-.09.01-.18,0-.29-.03-.17-.05-.28-.15-.35-.28-.06-.12-.06-.24,0-.35.03-.07.08-.13.15-.17.08-.05.16-.08.24-.08.08,0,.16,0,.23.03Zm-.06.2c-.07-.02-.13-.02-.19,0-.06.03-.11.07-.13.13-.02.06-.02.13.02.19.04.06.09.11.17.13.07.02.15.02.21,0,.06-.03.1-.08.12-.14.02-.06,0-.13-.03-.18-.04-.06-.09-.1-.16-.12Z"/>
      <path d="m19.68,26.57c.12-.32.17-.49.27-.82.09.01.13.01.22.02.06.18.09.28.17.46.09-.18.12-.27.19-.45.09,0,.13,0,.22-.01.08.33.12.5.22.83-.11.01-.16.02-.27.02-.04-.19-.06-.29-.1-.48-.08.2-.13.3-.23.49-.04,0-.06,0-.11,0-.09-.2-.13-.3-.2-.5-.05.19-.07.29-.13.48-.11-.01-.16-.02-.27-.03Z"/>
      <path d="m21.53,25.6c.14-.04.26-.03.39.02.11.05.19.13.23.24.03.08.04.16.02.24-.02.09-.07.17-.15.24-.07.06-.15.1-.26.13-.17.05-.32.03-.44-.04-.11-.07-.17-.16-.19-.29-.01-.08,0-.15.03-.23.04-.08.09-.15.16-.21.06-.05.13-.08.21-.11Zm.06.21c-.07.02-.12.06-.16.11-.04.06-.05.12-.04.18.01.07.05.12.12.15.06.03.13.04.21.02.08-.02.13-.06.17-.12.04-.06.05-.12.02-.19-.02-.06-.06-.11-.13-.14-.06-.03-.13-.03-.19-.01Z"/>
      <path d="m22.58,25.39l.32.57c-.1.06-.14.08-.24.13-.12-.24-.17-.36-.29-.59-.07.04-.1.05-.18.08-.03-.07-.04-.1-.07-.17.22-.1.33-.16.53-.29.04.06.06.09.1.16-.07.04-.1.06-.17.11Z"/>
      <path d="m22.99,24.87c.2.27.31.4.51.67-.09.07-.13.11-.22.17-.19-.28-.28-.42-.47-.7.08-.05.11-.08.19-.14Z"/>
      <path d="m23.32,24.57c.2.08.31.12.52.18-.08-.22-.12-.32-.22-.53.07-.08.1-.13.16-.22.17.33.25.51.37.89-.06.07-.09.1-.15.17-.37-.1-.54-.16-.87-.32.08-.07.12-.1.19-.18Z"/>
      <path d="m24.33,23.41c-.06.12-.09.18-.15.29.05.03.07.04.12.07.06-.11.09-.17.14-.29.07.03.1.05.16.08-.06.12-.09.18-.15.3.05.03.07.04.12.07.07-.13.1-.19.16-.33.07.03.1.05.16.08-.12.26-.18.38-.33.61-.28-.18-.41-.28-.69-.46.12-.19.17-.29.27-.51.07.03.1.05.16.08Z"/>
    </g>
  </g>
</svg>