<svg xmlns="http://www.w3.org/2000/svg" shape-rendering="geometricPrecision" text-rendering="geometricPrecision" image-rendering="optimizeQuality" fill-rule="evenodd" clip-rule="evenodd" viewBox="0 0 512 419.923"><path fill="#fff" d="M255.429 46.236c5.92 4.06 250.468 171.811 163.649 112.258v233.328H92.919V157.869l162.51-111.633z"/><path fill="#162B51" d="M154.625 215.464c-9.407-3.903-16.954-12.455-20.97-23.107 37.348 18.311 52.406-30.544 7.603-33.463 14.185-16.08 34.355-15.317 50.324-2.751 7.53 5.931 11.786 8.941 16.192 10.318 4.06 1.194 7.111 1.121 11.1 1.096l76.912-.427c20.84.298 32.33-31.38 61.589-19.185 9.408 3.904 16.937 12.474 20.97 23.108-37.347-18.312-52.424 30.562-7.602 33.462-14.185 16.08-34.355 15.338-50.325 2.752-6.989-5.578-11.303-11.918-25.413-11.954l-75.393.768-2.729.031-.446-.003a28.78 28.78 0 00-8.55 1.305 32.837 32.837 0 00-7.623 4.181c-15.04 10.262-26.027 22.159-45.639 13.98v-.111z"/><path fill="#E7E1EB" d="M419.078 158.494v233.33h15.567V169.172l-15.567-10.678zm-326.159-.625v233.955H77.353V168.562l15.566-10.693z"/><path fill="#F54" fill-rule="nonzero" d="M32.672 199.255c-9.53 6.505-22.529 4.052-29.034-5.479-6.504-9.53-4.051-22.529 5.479-29.034L243.642 3.638c7.46-5.092 17.045-4.694 23.979.289l235.262 161.382c9.53 6.505 11.983 19.504 5.479 29.034-6.505 9.531-19.504 11.984-29.034 5.479L255.429 46.236 32.672 199.255z"/><path fill="#162B51" fill-rule="nonzero" d="M447.006 177.651l.013 214.578h15.877a6.262 6.262 0 010 12.523H49.103a6.262 6.262 0 010-12.523H64.98V177.063l12.373-8.501v223.262h357.292V169.172l12.361 8.479z"/><path fill="#1A1A1A" d="M151.182 314.079c-23.249-11.816-20.582-24.986 2.774-23.609l5.23 9.804 10.777-33.519c4.236-13.192 11.286-25.155 25.114-25.155h130.369c13.828 0 21.789 11.73 25.134 25.133l8.089 32.503 4.658-8.766c24.012-1.397 26.151 12.556.741 24.604l4.13 6.332c16.706 17.172 15.14 34.317 12.534 76.729v13.932c0 4.319-3.535 7.856-7.856 7.856h-33.518c-4.32 0-7.856-3.537-7.856-7.856v-6.309H180.551v6.309c0 4.319-3.536 7.856-7.855 7.856h-33.519c-4.321 0-7.856-3.537-7.856-7.856v-18.103c0-.423.042-.825.085-1.228-2.542-32.545-6.12-61.887 19.776-78.657z"/><path fill="#C2E3F7" d="M346.727 307.663l-8.111-33.709c-2.222-10.269-8.618-19.162-19.162-19.162H199.651c-10.525 0-15.924 9.126-19.163 19.162l-10.122 33.709h176.361z"/><path fill="#E7E1EB" d="M318.035 352.675l29.771-3.748c7.031-.784 8.914 2.181 6.522 8.237l-3.219 7.812c-1.037 2.012-2.413 3.473-4.022 4.489-1.885 1.166-4.15 1.737-6.67 1.843l-26.553.212c-6.415-.022-9.189-2.584-7.178-8.47 1.652-5.526 5.422-9 11.349-10.375zm-124.06 0l-29.771-3.748c-7.03-.784-8.915 2.181-6.522 8.237l3.218 7.812c1.038 2.012 2.415 3.473 4.025 4.489 1.883 1.166 4.149 1.737 6.669 1.843l26.553.212c6.416-.022 9.19-2.584 7.179-8.47-1.653-5.526-5.422-9-11.351-10.375z"/></svg>