<svg xmlns="http://www.w3.org/2000/svg" shape-rendering="geometricPrecision" text-rendering="geometricPrecision" image-rendering="optimizeQuality" fill-rule="evenodd" clip-rule="evenodd" viewBox="0 0 391 512.476"><path d="M30.971 0h112.864c2.959 0 5.381 2.421 5.381 5.381v41.606h2.271c6.051 0 11 4.95 11 10.999v19.489c0 .954-.123 1.879-.354 2.764l.974-.088 7.134-5.049c2.599-1.853 3.928-2.795 4.825-3.755l.194-.196c.865-.987 1.755-2.456 3.454-5.257l19.473-32.126c1.683-2.836 3.465-5.41 5.355-7.668 3.413-4.077 7.575-7.616 12.546-9.628a24.957 24.957 0 017.052-1.716 35.839 35.839 0 011.684-.035h74.909l.511.031c6.97.248 13.911 1.433 20.548 3.903 6.827 2.542 13.31 6.431 19.143 12.036 5.993 5.759 13.752 14.852 21.066 24.351 7.443 9.668 14.47 19.815 18.739 27.342 3.158 5.568 5.498 11.504 7.287 17.669 1.775 6.12 2.996 12.389 3.928 18.708.109.748.018 1.48-.232 2.14v352.893c0 10.641-4.353 20.314-11.36 27.323-7.008 7.008-16.68 11.359-27.322 11.359H49.231c-13.543 0-25.852-5.538-34.773-14.459C5.537 489.097 0 476.787 0 463.244V84.243a4.298 4.298 0 014.298-4.298l.407.02 6.593.032a10.927 10.927 0 01-.294-2.522V57.986c0-6.049 4.95-10.999 10.999-10.999h3.587V5.381C25.59 2.421 28.011 0 30.971 0zm310.02 477.511a4.3 4.3 0 018.597 0v26.369h2.453c8.269 0 15.791-3.387 21.245-8.841 5.454-5.455 8.84-12.977 8.84-21.245v-22.259H8.597v11.709c0 11.17 4.572 21.329 11.939 28.695 6.343 6.344 14.756 10.616 24.103 11.681v-26.109a4.3 4.3 0 018.597 0v26.369h24.332v-26.369a4.298 4.298 0 118.596 0v26.369h24.331v-26.369a4.3 4.3 0 018.597 0v26.369h24.331v-26.369a4.298 4.298 0 118.597 0v26.369h24.331v-26.369a4.3 4.3 0 018.597 0v26.369h24.331v-26.369a4.298 4.298 0 118.597 0v26.369h24.332v-26.369a4.298 4.298 0 118.597 0v26.369h24.33v-26.369a4.3 4.3 0 018.597 0v26.369h24.331v-26.369a4.298 4.298 0 118.596 0v26.369h24.332v-26.369zM8.597 442.938h373.529V119.435h.014c0-.309.033-.612.096-.906-.859-5.541-1.946-10.95-3.436-16.091-1.609-5.548-3.703-10.869-6.513-15.824-4.078-7.189-10.856-16.967-18.068-26.335-7.073-9.187-14.53-17.937-20.227-23.41-4.945-4.752-10.427-8.044-16.189-10.189-5.719-2.128-11.752-3.152-17.843-3.367l-76.343.005a16.424 16.424 0 00-4.306 1.113c-3.662 1.482-6.679 4.178-9.188 7.176-1.62 1.934-3.145 4.134-4.588 6.557-1.711 1.605-16.907 27.875-19.502 32.162-1.998 3.297-3.036 5.01-4.452 6.585l-.236.278c-1.487 1.591-3.059 2.705-6.14 4.889-.036 0-7.513 5.329-8.068 5.722a4.307 4.307 0 01-2.115.772l-7.385.667-.509.028-148.531-.722v354.393zm158.325-142.929a3.798 3.798 0 117.504-1.19c1.083 6.751 3.375 12.568 6.509 17.156 3.124 4.577 7.08 7.904 11.476 9.667a3.802 3.802 0 11-2.83 7.059c-5.805-2.329-10.951-6.609-14.931-12.438-3.736-5.472-6.46-12.342-7.728-20.253v-.001zm32.641-81.434c6.176 16.463 14.718 29.154 22.384 40.542 10.567 15.699 19.564 29.066 19.564 46.999 0 6.217-1.14 12.036-3.423 17.454-2.277 5.405-5.656 10.325-10.138 14.758l-.248.227c-4.441 4.323-9.33 7.595-14.667 9.802-5.447 2.255-11.295 3.384-17.547 3.384-6.248 0-12.091-1.129-17.527-3.384-5.404-2.239-10.36-5.587-14.87-10.029-4.503-4.449-7.894-9.368-10.167-14.757-2.286-5.416-3.43-11.237-3.43-17.455 0-18.316 8.997-31.784 19.71-47.821 7.477-11.194 15.84-23.711 22.268-40.007a4.29 4.29 0 018.091.287zm15.266 45.309c-6.456-9.592-13.516-20.08-19.444-33.059-5.963 12.625-12.813 22.88-19.064 32.237-9.908 14.834-18.23 27.292-18.23 43.054 0 5.117.909 9.829 2.724 14.13 1.826 4.328 4.589 8.319 8.287 11.971 3.71 3.655 7.76 6.398 12.149 8.217 4.354 1.805 9.1 2.711 14.237 2.711 5.165 0 9.928-.906 14.289-2.711 4.297-1.777 8.274-4.45 11.933-8.008l.197-.209c3.711-3.67 6.475-7.662 8.29-11.972 1.812-4.3 2.717-9.011 2.717-14.129 0-15.362-8.316-27.719-18.085-42.232zm-111.622-98.882h184.592c7.076 0 13.509 2.894 18.168 7.553l.244.265c4.517 4.647 7.309 10.972 7.309 17.903V376.57c0 7.064-2.894 13.49-7.553 18.151l-.017.017c-4.66 4.659-11.087 7.553-18.151 7.553H103.207c-7.065 0-13.491-2.894-18.151-7.553h-.018c-4.659-4.659-7.553-11.092-7.553-18.168V190.723c0-7.065 2.893-13.492 7.552-18.152l.017-.017c4.661-4.659 11.087-7.552 18.153-7.552zm184.592 8.597H103.207c-4.712 0-8.997 1.925-12.101 5.024-3.098 3.104-5.024 7.388-5.024 12.1V376.57c0 4.703 1.929 8.985 5.034 12.09l-.009.009c3.105 3.099 7.389 5.025 12.1 5.025h184.592c4.711 0 8.994-1.926 12.099-5.025 3.099-3.104 5.025-7.388 5.025-12.099V190.723a17.06 17.06 0 00-4.823-11.894l-.211-.196c-3.105-3.106-7.386-5.034-12.09-5.034zm-73.921-87.997l5.706-17.768c.071-.221.158-.433.261-.634 2.516-4.96 5.667-8.783 9.509-11.514 3.91-2.78 8.429-4.366 13.617-4.795.255-.02.506-.019.752.004l50.991.481c11.426.214 15.53 3.662 23.935 10.723l.25.227.008-.01c7.31 6.141 13.143 12.645 18.176 20.357 4.962 7.602 9.107 16.341 13.11 27.051 2.692 7.198 3.829 13.914 3.449 20.618-.379 6.683-2.263 13.278-5.611 20.26a4.281 4.281 0 01-5.707 2.015l-.028-.013-.006.013-126.301-61.569a4.297 4.297 0 01-2.111-5.446zm13.74-14.756l-4.531 14.107 118.96 57.99c1.773-4.487 2.79-8.783 3.033-13.072.312-5.513-.648-11.104-2.911-17.158-3.78-10.109-7.66-18.311-12.271-25.372-4.535-6.951-9.829-12.845-16.497-18.445.019-.025-.221-.187-.258-.216-6.866-5.768-10.22-8.585-18.564-8.743l-50.94-.48c-3.63.305-6.723 1.369-9.317 3.212-2.613 1.858-4.834 4.575-6.704 8.177zM32.976 7.758h13.607v40.456H32.976V7.758zM21.358 55.705h132.089c1.016 0 1.848.834 1.848 1.848v17.725a1.856 1.856 0 01-1.848 1.847H21.358a1.855 1.855 0 01-1.847-1.847V57.553c0-1.016.831-1.848 1.847-1.848zM128.222 7.758h13.606v40.456h-13.606V7.758zm-19.049 0h13.606v40.456h-13.606V7.758zm-19.049 0h13.606v40.456H90.124V7.758zm-19.049 0h13.606v40.456H71.075V7.758zm-19.049 0h13.606v40.456H52.026V7.758z"/></svg>